HIERARCHY
ROOT Hips
{
    OFFSET   0.000000   0.000000   0.000000
    CHANNELS 6 Xposition Yposition Zposition Zrotation Xrotation Yrotation
    JOINT Chest
    {
        OFFSET   0.000000   8.007230   0.000000
        CHANNELS 3 Zrotation Xrotation Yrotation
        JOINT Chest2
        {
            OFFSET   0.000000  22.077100   0.000000
            CHANNELS 3 Zrotation Xrotation Yrotation
            JOINT Neck
            {
                OFFSET   0.000000  23.255100   0.000000
                CHANNELS 3 Zrotation Xrotation Yrotation
                JOINT Head
                {
                    OFFSET   0.000000  14.370100   1.956600
                    CHANNELS 3 Zrotation Xrotation Yrotation
                    End Site
                    {
                        OFFSET   0.000000  19.566000   0.000000
                    }
                }
            }
            JOINT LeftCollar
            {
                OFFSET   3.911900  19.017000  -0.467063
                CHANNELS 3 Zrotation Xrotation Yrotation
                JOINT LeftShoulder
                {
                    OFFSET  10.383700   0.000000   0.000000
                    CHANNELS 3 Zrotation Xrotation Yrotation
                    JOINT LeftElbow
                    {
                        OFFSET  26.662100   0.001193   0.000980
                        CHANNELS 3 Zrotation Xrotation Yrotation
                        JOINT LeftWrist
                        {
                            OFFSET  28.869000  -0.000059  -0.000082
                            CHANNELS 3 Zrotation Xrotation Yrotation
                            JOINT LeftFinger0
                            {
                                OFFSET   2.044650  -2.323450   3.252850
                                CHANNELS 3 Zrotation Xrotation Yrotation
                                JOINT LeftFinger01
                                {
                                    OFFSET   3.088130   0.000000   0.000000
                                    CHANNELS 3 Zrotation Xrotation Yrotation
                                    JOINT LeftFinger02
                                    {
                                        OFFSET   2.639460   0.000000   0.000000
                                        CHANNELS 3 Zrotation Xrotation Yrotation
                                        End Site
                                        {
                                            OFFSET   2.582190   0.000000   0.000000
                                        }
                                    }
                                }
                            }
                            JOINT LeftFinger1
                            {
                                OFFSET   8.364480   0.000000   3.252850
                                CHANNELS 3 Zrotation Xrotation Yrotation
                                JOINT LeftFinger11
                                {
                                    OFFSET   4.646930   0.000000   0.000000
                                    CHANNELS 3 Zrotation Xrotation Yrotation
                                    JOINT LeftFinger12
                                    {
                                        OFFSET   2.323470   0.000000   0.000000
                                        CHANNELS 3 Zrotation Xrotation Yrotation
                                        End Site
                                        {
                                            OFFSET   2.273050   0.000000   0.000000
                                        }
                                    }
                                }
                            }
                            JOINT LeftFinger2
                            {
                                OFFSET   8.364490   0.000016   1.078090
                                CHANNELS 3 Zrotation Xrotation Yrotation
                                JOINT LeftFinger21
                                {
                                    OFFSET   5.111610   0.000000   0.000000
                                    CHANNELS 3 Zrotation Xrotation Yrotation
                                    JOINT LeftFinger22
                                    {
                                        OFFSET   2.788150   0.000016   0.000000
                                        CHANNELS 3 Zrotation Xrotation Yrotation
                                        End Site
                                        {
                                            OFFSET   2.727660   0.000000   0.000000
                                        }
                                    }
                                }
                            }
                            JOINT LeftFinger3
                            {
                                OFFSET   7.899780   0.000015  -1.078090
                                CHANNELS 3 Zrotation Xrotation Yrotation
                                JOINT LeftFinger31
                                {
                                    OFFSET   4.646930   0.000000   0.000000
                                    CHANNELS 3 Zrotation Xrotation Yrotation
                                    JOINT LeftFinger32
                                    {
                                        OFFSET   2.323470   0.000000   0.000000
                                        CHANNELS 3 Zrotation Xrotation Yrotation
                                        End Site
                                        {
                                            OFFSET   2.273050   0.000000   0.000000
                                        }
                                    }
                                }
                            }
                            JOINT LeftFinger4
                            {
                                OFFSET   7.435090   0.000000  -3.252850
                                CHANNELS 3 Zrotation Xrotation Yrotation
                                JOINT LeftFinger41
                                {
                                    OFFSET   3.717550   0.000000   0.000000
                                    CHANNELS 3 Zrotation Xrotation Yrotation
                                    JOINT LeftFinger42
                                    {
                                        OFFSET   1.858770   0.000000   0.000000
                                        CHANNELS 3 Zrotation Xrotation Yrotation
                                        End Site
                                        {
                                            OFFSET   1.818440   0.000000   0.000000
                                        }
                                    }
                                }
                            }
                        }
                    }
                }
            }
            JOINT RightCollar
            {
                OFFSET  -3.911910  19.017000  -0.467062
                CHANNELS 3 Zrotation Xrotation Yrotation
                JOINT RightShoulder
                {
                    OFFSET -10.383700   0.000014   0.000000
                    CHANNELS 3 Zrotation Xrotation Yrotation
                    JOINT RightElbow
                    {
                        OFFSET -26.662100   0.001225   0.001091
                        CHANNELS 3 Zrotation Xrotation Yrotation
                        JOINT RightWrist
                        {
                            OFFSET -28.869000  -0.000020  -0.000085
                            CHANNELS 3 Zrotation Xrotation Yrotation
                            JOINT RightFinger0
                            {
                                OFFSET  -2.044650  -2.323490   3.252850
                                CHANNELS 3 Zrotation Xrotation Yrotation
                                JOINT RightFinger01
                                {
                                    OFFSET  -3.088130   0.000000   0.000000
                                    CHANNELS 3 Zrotation Xrotation Yrotation
                                    JOINT RightFinger02
                                    {
                                        OFFSET  -2.639460   0.000000   0.000000
                                        CHANNELS 3 Zrotation Xrotation Yrotation
                                        End Site
                                        {
                                            OFFSET  -2.582190   0.000000   0.000000
                                        }
                                    }
                                }
                            }
                            JOINT RightFinger1
                            {
                                OFFSET  -8.364480   0.000000   3.252850
                                CHANNELS 3 Zrotation Xrotation Yrotation
                                JOINT RightFinger11
                                {
                                    OFFSET  -4.646930   0.000000   0.000000
                                    CHANNELS 3 Zrotation Xrotation Yrotation
                                    JOINT RightFinger12
                                    {
                                        OFFSET  -2.323470   0.000000   0.000000
                                        CHANNELS 3 Zrotation Xrotation Yrotation
                                        End Site
                                        {
                                            OFFSET  -2.273050   0.000000   0.000000
                                        }
                                    }
                                }
                            }
                            JOINT RightFinger2
                            {
                                OFFSET  -8.364480   0.000000   1.078090
                                CHANNELS 3 Zrotation Xrotation Yrotation
                                JOINT RightFinger21
                                {
                                    OFFSET  -5.111620   0.000000   0.000000
                                    CHANNELS 3 Zrotation Xrotation Yrotation
                                    JOINT RightFinger22
                                    {
                                        OFFSET  -2.788160   0.000000   0.000000
                                        CHANNELS 3 Zrotation Xrotation Yrotation
                                        End Site
                                        {
                                            OFFSET  -2.727660   0.000000   0.000000
                                        }
                                    }
                                }
                            }
                            JOINT RightFinger3
                            {
                                OFFSET  -7.899780   0.000000  -1.078090
                                CHANNELS 3 Zrotation Xrotation Yrotation
                                JOINT RightFinger31
                                {
                                    OFFSET  -4.646930   0.000000   0.000000
                                    CHANNELS 3 Zrotation Xrotation Yrotation
                                    JOINT RightFinger32
                                    {
                                        OFFSET  -2.323470   0.000000   0.000000
                                        CHANNELS 3 Zrotation Xrotation Yrotation
                                        End Site
                                        {
                                            OFFSET  -2.273050   0.000000   0.000000
                                        }
                                    }
                                }
                            }
                            JOINT RightFinger4
                            {
                                OFFSET  -7.435090   0.000000  -3.252850
                                CHANNELS 3 Zrotation Xrotation Yrotation
                                JOINT RightFinger41
                                {
                                    OFFSET  -3.717550   0.000000   0.000000
                                    CHANNELS 3 Zrotation Xrotation Yrotation
                                    JOINT RightFinger42
                                    {
                                        OFFSET  -1.858760   0.000000   0.000000
                                        CHANNELS 3 Zrotation Xrotation Yrotation
                                        End Site
                                        {
                                            OFFSET  -1.818440   0.000000   0.000000
                                        }
                                    }
                                }
                            }
                        }
                    }
                }
            }
        }
    }
    JOINT LeftHip
    {
        OFFSET   9.783030   0.000000   0.000000
        CHANNELS 3 Zrotation Xrotation Yrotation
        JOINT LeftKnee
        {
            OFFSET   0.000063 -41.789100   0.000608
            CHANNELS 3 Zrotation Xrotation Yrotation
            JOINT LeftAnkle
            {
                OFFSET   0.000048 -41.133200  -0.000184
                CHANNELS 3 Zrotation Xrotation Yrotation
                JOINT LeftToe
                {
                    OFFSET   0.000000  -6.358960  14.674500
                    CHANNELS 3 Zrotation Xrotation Yrotation
                    End Site
                    {
                        OFFSET   0.000000   0.000000   3.913200
                    }
                }
            }
        }
    }
    JOINT RightHip
    {
        OFFSET  -9.783030   0.000000   0.000000
        CHANNELS 3 Zrotation Xrotation Yrotation
        JOINT RightKnee
        {
            OFFSET   0.000071 -41.789100   0.001239
            CHANNELS 3 Zrotation Xrotation Yrotation
            JOINT RightAnkle
            {
                OFFSET   0.000037 -41.133200  -0.000166
                CHANNELS 3 Zrotation Xrotation Yrotation
                JOINT RightToe
                {
                    OFFSET   0.000000  -6.358960  14.674500
                    CHANNELS 3 Zrotation Xrotation Yrotation
                    End Site
                    {
                        OFFSET   0.000000   0.000000   3.913200
                    }
                }
            }
        }
    }
}
MOTION
Frames: 4
Frame Time:   0.016667
  0.976235  90.128100  -3.194310  -0.807123  -2.052760  -0.274249  -0.100293   2.884490  -0.552258  -0.173040   5.769880  -1.101550   0.611059  -0.369153   0.001803   1.003860  -0.748830   9.865050  -6.003360  -0.983335   6.820980 -72.452200  18.810900  -0.006009  -4.523290  -6.081220 -16.682500  12.177900   3.010250   5.826170  48.324100  40.578500 -82.615600 -16.167600   0.004176   0.007428  -3.083810   0.002413   0.011828 -28.285600   7.074620 -12.891500 -23.797600   0.005975  -0.000494 -16.658300   0.000083  -0.005358 -28.222300  -0.589921   1.099310 -33.575100  -0.007674   0.002457 -22.361000   0.000466   0.003778 -26.015400  -0.547278   1.121140 -26.020800  -0.000107   0.004047 -17.345700  -0.000115   0.003164 -22.129700  -3.150390   7.696210 -33.512600   0.001091   0.002202 -22.319400  -0.005441   0.001641   9.816570   2.038390   8.016370  70.857900   0.372843   3.892250   2.057830 -14.932100  10.899100 -13.449900 -12.440600   0.101509 -47.303800  43.856900  88.226000  21.482700   0.003738  -0.002308   5.741360   0.002080  -0.009828  29.154500   3.319400   5.924460  23.991600   0.001673  -0.003333  16.793400  -0.007210  -0.005040  27.126900  -1.726560  -3.366360  27.716600   0.000327  -0.002633  18.452700   0.000534  -0.004185  27.721900  -3.853720  -7.284960  31.862000  -0.005595  -0.000345  21.220100  -0.008585  -0.001783  35.664500  -4.824160  -6.683910  53.919800   0.000265  -0.010359  35.904800  -0.006248  -0.009363   0.578002   1.302220   3.833340   0.450719  -0.009860  16.013000  -4.595860  -1.459180   5.907780  -0.000000   0.000000   0.000000   1.495030  -0.337856  -6.574160  -2.431890   5.688330  -9.554590  -8.230300   0.663470   0.946383   0.000000   0.000000  -0.000000
  0.967777  90.128100  -3.175610  -0.807495  -2.052750  -0.288565  -0.100342   2.878930  -0.552375  -0.173213   5.758730  -1.101790   0.616721  -0.340675   0.001830   1.013190  -0.690957   9.864780  -6.002870  -0.987551   6.820070 -72.446200  18.768000   0.020751  -4.507380  -5.942380 -16.764900  12.173400   2.966250   5.818100  48.357600  40.641300 -82.715400 -16.139000   0.004177   0.007428  -3.069530   0.002408   0.011829 -28.295300   7.109340 -12.947200 -23.811600   0.005975  -0.000499 -16.668100   0.000082  -0.005361 -28.223500  -0.563252   1.049490 -33.602200  -0.007674   0.002453 -22.379100   0.000467   0.003771 -26.027600  -0.522676   1.070280 -26.032700  -0.000108   0.004043 -17.345700  -0.000115   0.003163 -22.154900  -3.128110   7.633970 -33.545000   0.001102   0.002221 -22.341000  -0.005440   0.001654   9.822790   2.030120   8.030390  70.834600   0.433767   3.890990   2.065240 -14.858200  10.870900 -13.414100 -12.387600   0.074352 -47.321400  43.856700  88.224900  21.640300   0.003742  -0.002286   5.820150   0.002072  -0.009820  29.152000   3.330860   5.946210  23.991600   0.001675  -0.003328  16.792900  -0.007211  -0.005041  27.128400  -1.714800  -3.343500  27.714500   0.000328  -0.002609  18.453300   0.000538  -0.004185  27.724700  -3.842720  -7.265020  31.839000  -0.005593  -0.000329  21.204800  -0.008583  -0.001778  35.658900  -4.810180  -6.665910  53.909700   0.000285  -0.010357  35.904700  -0.006245  -0.009361   0.583362   1.294800   3.833500   0.447821   0.014482  16.025000  -4.593270  -1.464880   5.907820  -0.000000   0.000000  -0.000000   1.502810  -0.324718  -6.574370  -2.426790   5.687560  -9.565850  -8.235680   0.655092   0.961770  -0.000000   0.000000   0.000000
  0.953946  90.128100  -3.144320  -0.808159  -2.052750  -0.312612  -0.100427   2.869620  -0.552489  -0.173434   5.740090  -1.102010   0.626829  -0.291185   0.001856   1.029830  -0.590504   9.864340  -6.002100  -0.994753   6.815140 -72.428800  18.676500   0.075371  -4.479790  -5.662600 -16.934400  12.153500   2.901910   5.793240  48.402200  40.734200 -82.866100 -16.094700   0.004177   0.007422  -3.047360   0.002398   0.011836 -28.307400   7.161140 -13.031400 -23.830700   0.005972  -0.000509 -16.681500   0.000076  -0.005369 -28.225200  -0.521194   0.970969 -33.629300  -0.007674   0.002442 -22.397100   0.000473   0.003751 -26.040300  -0.483782   0.990163 -26.044500  -0.000110   0.004029 -17.345700  -0.000116   0.003157 -22.183500  -3.093050   7.538030 -33.581200   0.001127   0.002266 -22.365100  -0.005438   0.001687   9.833810   2.014020   8.058240  70.792500   0.542327   3.885150   2.072690 -14.712400  10.832700 -13.367600 -12.310100   0.026706 -47.339100  43.856400  88.223800  21.878900   0.003746  -0.002228   5.939450   0.002055  -0.009799  29.147900   3.350070   5.981760  23.991600   0.001677  -0.003317  16.792400  -0.007211  -0.005042  27.131000  -1.694850  -3.304560  27.712300   0.000329  -0.002555  18.456400   0.000550  -0.004184  27.729700  -3.822870  -7.228380  31.816000  -0.005588  -0.000293  21.189500  -0.008578  -0.001763  35.655400  -4.785110  -6.632590  53.899700   0.000328  -0.010351  35.904500  -0.006236  -0.009356   0.592745   1.287370   3.833660   0.441527   0.050577  16.043700  -4.589420  -1.482710   5.908040  -0.000000   0.000000   0.000000   1.516070  -0.300109  -6.574560  -2.418300   5.684030  -9.583520  -8.244990   0.641600   0.987117  -0.000000   0.000000  -0.000000
  0.943468  90.128000  -3.119240  -0.808783  -2.055850  -0.331901  -0.100480   2.861530  -0.551932  -0.173639   5.723880  -1.100890   0.636141  -0.246728   0.001855   1.045130  -0.500572   9.863920  -6.006850  -1.000720   6.803630 -72.395300  18.557900   0.141543  -4.455000  -5.319750 -17.138900  12.108200   2.864480   5.748640  48.411400  40.793100 -82.967200 -16.060100   0.004159   0.007398  -3.030050   0.002390   0.011851 -28.308800   7.195070 -13.083400 -23.837400   0.005960  -0.000523 -16.686200   0.000035  -0.005378 -28.225000  -0.486316   0.906017 -33.626000  -0.007673   0.002422 -22.394900   0.000484   0.003718 -26.033200  -0.451217   0.924030 -26.036700  -0.000111   0.004007 -17.340500  -0.000117   0.003146 -22.190900  -3.064220   7.465450 -33.585600   0.001161   0.002335 -22.368100  -0.005434   0.001739   9.844490   1.997230   8.091830  70.751000   0.640561   3.872890   2.071110 -14.558900  10.817800 -13.361600 -12.277200  -0.014546 -47.389700  43.885200  88.266400  22.021800   0.003728  -0.002135   6.010880   0.002035  -0.009771  29.149700   3.364430   6.006630  23.994600   0.001676  -0.003305  16.795300  -0.007212  -0.005036  27.133100  -1.678700  -3.272660  27.721800   0.000327  -0.002475  18.464000   0.000571  -0.004176  27.734500  -3.803680  -7.191340  31.826300  -0.005578  -0.000242  21.196300  -0.008570  -0.001738  35.660500  -4.761140  -6.598390  53.904100   0.000389  -0.010340  35.904400  -0.006222  -0.009349   0.600635   1.306570   3.833640   0.434661   0.073262  16.056000  -4.595010  -1.525360   5.908560   0.000000   0.000000   0.000000   1.527450  -0.274350  -6.572680  -2.411520   5.675190  -9.594910  -8.253290   0.632390   1.006760  -0.000000   0.000000   0.000000
